<svg width="24" height="24" viewBox="0 0 24 24" fill="none" xmlns="http://www.w3.org/2000/svg">
<path d="M12.375 2.25C9.88943 2.25273 7.50645 3.24133 5.74889 4.99889C3.99133 6.75645 3.00273 9.13943 3 11.625V19.5C3 19.8978 3.15804 20.2794 3.43934 20.5607C3.72064 20.842 4.10218 21 4.5 21H12.375C14.8614 21 17.246 20.0123 19.0041 18.2541C20.7623 16.496 21.75 14.1114 21.75 11.625C21.75 9.1386 20.7623 6.75403 19.0041 4.99587C17.246 3.23772 14.8614 2.25 12.375 2.25ZM12.375 19.5H4.5V11.625C4.5 10.0675 4.96186 8.54492 5.82718 7.24988C6.69249 5.95485 7.9224 4.94549 9.36137 4.34945C10.8003 3.75341 12.3837 3.59746 13.9113 3.90132C15.4389 4.20517 16.8421 4.9552 17.9435 6.05653C19.0448 7.15787 19.7948 8.56106 20.0987 10.0887C20.4025 11.6163 20.2466 13.1997 19.6506 14.6386C19.0545 16.0776 18.0452 17.3075 16.7501 18.1728C15.4551 19.0381 13.9325 19.5 12.375 19.5ZM13.5 12C13.5 12.2225 13.434 12.44 13.3104 12.625C13.1868 12.81 13.0111 12.9542 12.8055 13.0394C12.6 13.1245 12.3738 13.1468 12.1555 13.1034C11.9373 13.06 11.7368 12.9528 11.5795 12.7955C11.4222 12.6382 11.315 12.4377 11.2716 12.2195C11.2282 12.0012 11.2505 11.775 11.3356 11.5695C11.4208 11.3639 11.565 11.1882 11.75 11.0646C11.935 10.941 12.1525 10.875 12.375 10.875C12.6734 10.875 12.9595 10.9935 13.1705 11.2045C13.3815 11.4155 13.5 11.7016 13.5 12ZM9.375 12C9.375 12.2225 9.30902 12.44 9.1854 12.625C9.06179 12.81 8.88609 12.9542 8.68052 13.0394C8.47495 13.1245 8.24875 13.1468 8.03052 13.1034C7.81229 13.06 7.61184 12.9528 7.4545 12.7955C7.29717 12.6382 7.19002 12.4377 7.14662 12.2195C7.10321 12.0012 7.12549 11.775 7.21064 11.5695C7.29578 11.3639 7.43998 11.1882 7.62498 11.0646C7.80999 10.941 8.0275 10.875 8.25 10.875C8.54837 10.875 8.83452 10.9935 9.0455 11.2045C9.25647 11.4155 9.375 11.7016 9.375 12ZM17.625 12C17.625 12.2225 17.559 12.44 17.4354 12.625C17.3118 12.81 17.1361 12.9542 16.9305 13.0394C16.725 13.1245 16.4988 13.1468 16.2805 13.1034C16.0623 13.06 15.8618 12.9528 15.7045 12.7955C15.5472 12.6382 15.44 12.4377 15.3966 12.2195C15.3532 12.0012 15.3755 11.775 15.4606 11.5695C15.5458 11.3639 15.69 11.1882 15.875 11.0646C16.06 10.941 16.2775 10.875 16.5 10.875C16.7984 10.875 17.0845 10.9935 17.2955 11.2045C17.5065 11.4155 17.625 11.7016 17.625 12Z" fill="#20D7FF"/>
</svg>
